<svg width="334" height="51" viewBox="0 0 334 51" fill="none" xmlns="http://www.w3.org/2000/svg">
<g clip-path="url(#clip0_272_1442)">
<path fill-rule="evenodd" clip-rule="evenodd" d="M50.4984 11.4314C53.3232 11.7087 56.3249 12.0637 59.5035 12.4853C59.5312 12.4853 59.5478 12.4631 59.5478 12.4187C59.5478 12.391 59.5367 12.3688 59.5257 12.3577C59.5091 12.3577 59.2327 12.2911 58.6965 12.1636C58.1381 12.0471 57.3531 11.8751 56.3305 11.6588C54.8711 11.3538 53.0413 10.9932 50.8246 10.5828C48.6244 10.1724 46.1645 9.76192 43.4558 9.35703C40.747 8.94659 37.9057 8.59161 34.9316 8.3032C31.7696 7.99814 28.602 7.80401 25.4234 7.73191C22.2448 7.64316 19.2155 7.74855 16.3299 8.03696C13.4332 8.33093 10.824 8.86339 8.50776 9.6399C6.19153 10.4275 4.31201 11.5202 2.86368 12.9068C1.4264 14.31 0.558502 16.0849 0.265518 18.2314C0.0333423 20.1061 0.353966 22.297 1.22739 24.8151C1.97367 26.9616 3.1843 29.3854 4.85376 32.0755C4.87034 32.0921 4.87587 32.0976 4.87587 32.0976C4.89245 32.0976 4.90351 32.0866 4.92009 32.0755C4.93115 32.0477 4.93115 32.02 4.92009 31.9867C4.88692 31.9701 4.7432 31.6262 4.48338 30.9551C4.21804 30.2839 3.98586 29.391 3.78132 28.2817C3.5602 27.1668 3.52704 25.9299 3.67076 24.5544C3.78685 23.3397 4.15723 22.0973 4.78742 20.8272C5.41761 19.5404 6.39607 18.3035 7.73937 17.1166C9.07715 15.9296 10.8793 14.8591 13.1402 13.8941C15.672 12.8291 18.9225 11.9916 22.8916 11.3926C26.8552 10.7936 31.6867 10.5329 37.386 10.6216C38.7514 10.6494 40.1666 10.7048 41.626 10.7769C44.3955 10.91 47.353 11.1319 50.504 11.437M62.9364 19.9841C62.063 21.7368 60.9685 23.251 59.6583 24.5211C58.3592 25.7802 56.933 26.7564 55.3686 27.4608C53.8263 28.1652 52.2342 28.5368 50.609 28.5756C48.9893 28.6366 47.4304 28.3205 45.9268 27.6327C44.8378 27.1224 43.8759 26.4513 43.0467 25.6193C42.2285 24.7818 41.5597 23.8445 41.0345 22.7906C41.8969 23.8722 42.9914 24.7264 44.3126 25.3587C45.667 25.9743 47.0711 26.2572 48.5305 26.2128C49.9843 26.1684 51.4216 25.8357 52.8368 25.2034C54.2354 24.5711 55.5234 23.6892 56.7064 22.5466C57.8838 21.404 58.8678 20.0451 59.6583 18.4699C60.4267 16.8725 60.9021 15.2751 61.079 13.6667C61.2504 12.0637 61.1509 10.5273 60.775 9.08525C60.3936 7.62098 59.7689 6.32864 58.8955 5.20271C58.0055 4.06013 56.8833 3.17824 55.5289 2.54594C54.2188 1.93582 52.8478 1.64186 51.4161 1.66959C52.5935 1.40891 53.7765 1.33125 54.9595 1.43109C56.137 1.53093 57.2758 1.84153 58.3703 2.35181C59.8684 3.05621 61.1067 4.0324 62.0851 5.29145C63.0636 6.5505 63.7601 7.9815 64.1858 9.58998C64.5893 11.1985 64.6999 12.8957 64.5119 14.6817C64.3239 16.4621 63.7988 18.2314 62.9364 19.9897" fill="#002E63"/>
<path fill-rule="evenodd" clip-rule="evenodd" d="M55.3518 6.47288C56.662 7.09963 57.7565 7.96489 58.6299 9.06309C58.1048 7.99817 57.4304 7.05526 56.6012 6.23438C55.783 5.39686 54.8211 4.73128 53.7155 4.21546C52.1732 3.51105 50.5701 3.1949 48.9062 3.25037C47.2423 3.32247 45.6281 3.73291 44.0526 4.48169C45.4346 4.97533 46.8664 5.50225 48.3368 6.05689C49.5198 5.70747 50.7028 5.56326 51.8968 5.61872C53.0964 5.67419 54.2462 5.9626 55.3518 6.47288ZM44.1134 29.3022C45.4346 29.9013 46.8166 30.1841 48.2428 30.1564C47.0654 30.4226 45.8824 30.5003 44.7049 30.4004C43.5219 30.2951 42.3831 30.0011 41.272 29.5019C39.492 28.6533 38.0768 27.4275 37.032 25.819C35.9928 24.2272 35.3626 22.4135 35.1304 20.3835C34.8982 18.3479 35.1138 16.2624 35.7882 14.1326C33.2785 14.482 30.7357 14.9368 28.1596 15.4915C25.5836 16.0628 23.0904 16.7727 20.6858 17.6213C18.2977 18.4699 16.1417 19.4794 14.218 20.6442C12.2777 21.8145 10.7022 23.1845 9.47498 24.7486C8.26988 26.3016 7.54571 28.0765 7.31353 30.0788C7.31353 30.1065 7.29142 30.1287 7.2472 30.1453H7.22509C7.18086 30.1619 7.14769 30.1453 7.13664 30.1009C7.109 30.0732 6.99844 29.7903 6.81049 29.2634C6.62253 28.7254 6.48986 28.0044 6.418 27.1169C6.35719 26.4292 6.418 25.6804 6.58937 24.8595C6.76626 24.0442 7.11453 23.1956 7.63969 22.3192C8.25329 21.2487 9.27597 20.1783 10.7188 19.0912C12.145 18.0096 14.1351 17.0001 16.689 16.0683C19.2264 15.1199 22.4824 14.3378 26.4625 13.7221C30.4261 13.0954 35.2465 12.7182 40.9293 12.5851C44.4727 12.5075 48.2594 12.5463 52.2948 12.696C52.3391 12.696 52.3667 12.7182 52.3833 12.7571C52.3833 12.7737 52.3888 12.7792 52.4054 12.7792C52.3888 12.8347 52.3557 12.8735 52.2948 12.8902C52.2948 12.8902 51.93 12.8735 51.2501 12.8902C50.5812 12.9068 49.6801 12.9345 48.5579 12.9789C47.4357 13.0233 46.1422 13.1065 44.6662 13.223C43.1958 13.3228 41.6092 13.467 39.9066 13.6389C39.1769 15.2197 38.7347 16.7949 38.5688 18.3757C38.4196 19.9564 38.5412 21.4595 38.9226 22.896C39.2985 24.327 39.9342 25.5972 40.8242 26.712C41.6977 27.8269 42.7977 28.6921 44.1245 29.3189" fill="#006BB5"/>
<path fill-rule="evenodd" clip-rule="evenodd" d="M47.9392 8.46952C49.6418 8.85223 51.1344 9.18502 52.4003 9.47898C53.6551 9.78404 54.6281 10.0281 55.3301 10.2056C56.0322 10.3942 56.386 10.494 56.4026 10.494C56.4191 10.494 56.4357 10.4774 56.4468 10.4496C56.4468 10.4052 56.4413 10.3886 56.4247 10.3886C53.7989 9.31814 51.2947 8.3475 48.9066 7.47115C43.0801 5.33575 37.9059 3.69399 33.3895 2.53478C28.8566 1.39774 24.9096 0.648968 21.543 0.299538C18.3368 -0.0332511 15.5728 -0.0776231 13.2621 0.171969C10.9458 0.421561 8.99999 0.876374 7.42451 1.53086C5.84903 2.18535 4.57759 2.9674 3.59913 3.87703C2.62068 4.77001 1.87993 5.69628 1.37135 6.66137C0.862776 7.62646 0.508984 8.53053 0.321032 9.37915C0.216 9.78959 0.144136 10.1723 0.0999123 10.5217C0.0225204 11.2095 -0.00511962 11.7586 0.0114644 12.169C0.0391044 12.5739 0.0556883 12.7847 0.0556883 12.8069C0.0722723 12.8346 0.0833283 12.8513 0.0999123 12.8513C0.110968 12.8513 0.127552 12.8346 0.138608 12.8069C0.663768 10.8767 1.75278 9.31259 3.40013 8.11455C5.03089 6.93314 7.12047 6.05125 9.6744 5.48551C12.2228 4.92531 15.1084 4.6369 18.3312 4.60916C21.5651 4.57588 25.0422 4.77001 28.7626 5.17491C30.7305 5.39677 32.693 5.65745 34.6665 5.96805C36.6344 6.27311 38.5416 6.6059 40.388 6.95533C41.9192 7.24929 43.3786 7.53771 44.7606 7.83168C45.8828 8.06463 46.9442 8.28649 47.9503 8.49171" fill="#00A6CA"/>
<path d="M77.8896 5.4079H97.2266V10.5051H90.7312V26.0575H84.374V10.5051H77.8896V5.4079ZM98.3819 15.7521C98.3819 12.3798 99.3162 9.75635 101.19 7.88163C103.064 6.00692 105.668 5.06401 109.012 5.06401C112.357 5.06401 115.071 5.99028 116.923 7.83726C118.78 9.6787 119.709 12.2578 119.709 15.5802C119.709 17.9929 119.3 19.973 118.487 21.5205C117.68 23.0624 116.508 24.266 114.977 25.1257C113.446 25.9798 111.544 26.4069 109.267 26.4069C106.989 26.4069 105.027 26.0353 103.506 25.2976C101.986 24.5599 100.748 23.3896 99.7971 21.7867C98.8518 20.1782 98.3819 18.1648 98.3819 15.7577V15.7521ZM104.739 15.7743C104.739 17.8653 105.126 19.3629 105.9 20.267C106.674 21.1766 107.724 21.6314 109.056 21.6314C110.389 21.6314 111.478 21.1877 112.224 20.3002C112.976 19.4072 113.352 17.8043 113.352 15.4914C113.352 13.5501 112.959 12.1358 112.174 11.2373C111.389 10.3332 110.333 9.88392 108.996 9.88392C107.658 9.88392 106.679 10.3387 105.9 11.2484C105.121 12.158 104.739 13.6611 104.739 15.7687V15.7743Z" fill="#002F65"/>
<path d="M119.112 5.40794H126.171L130.328 12.3854L134.485 5.40794H141.5L133.507 17.4161V26.0575H127.127V17.4161L119.112 5.40794Z" fill="#002F65"/>
<path d="M140.992 15.7521C140.992 12.3798 141.926 9.75635 143.8 7.88163C145.674 6.00692 148.278 5.06401 151.622 5.06401C154.966 5.06401 157.681 5.99028 159.533 7.83726C161.39 9.6787 162.319 12.2578 162.319 15.5802C162.319 17.9929 161.91 19.973 161.097 21.5205C160.29 23.0624 159.118 24.266 157.587 25.1257C156.055 25.9798 154.154 26.4069 151.876 26.4069C149.599 26.4069 147.636 26.0353 146.116 25.2976C144.596 24.5599 143.358 23.3896 142.407 21.7867C141.462 20.1782 140.992 18.1648 140.992 15.7577V15.7521ZM147.349 15.7743C147.349 17.8653 147.736 19.3629 148.51 20.267C149.284 21.1766 150.334 21.6314 151.666 21.6314C152.998 21.6314 154.088 21.1877 154.834 20.3002C155.586 19.4072 155.962 17.8043 155.962 15.4914C155.962 13.5501 155.569 12.1358 154.784 11.2373C153.999 10.3332 152.943 9.88392 151.605 9.88392C150.268 9.88392 149.289 10.3387 148.51 11.2484C147.73 12.158 147.349 13.6611 147.349 15.7687V15.7743Z" fill="#002F65"/>
<path d="M165.879 26.0575V5.40794H176.476C178.439 5.40794 179.942 5.57988 180.981 5.91822C182.026 6.25655 182.866 6.88885 183.502 7.80402C184.138 8.72474 184.458 9.83404 184.458 11.143C184.458 12.2911 184.21 13.2784 183.723 14.1104C183.242 14.9424 182.573 15.619 181.717 16.1349C181.169 16.4566 180.429 16.7283 179.483 16.9446C180.241 17.1998 180.793 17.4549 181.142 17.7101C181.374 17.882 181.711 18.2425 182.153 18.7972C182.596 19.3518 182.894 19.7789 183.054 20.0784L186.128 26.0631H178.942L175.542 19.7567C175.111 18.9414 174.729 18.4089 174.392 18.1649C173.933 17.8487 173.408 17.6934 172.828 17.6934H172.275V26.0686H165.884L165.879 26.0575ZM172.275 13.7721H174.945C175.238 13.7721 175.802 13.6778 176.636 13.4947C177.057 13.4115 177.399 13.1952 177.659 12.8458C177.924 12.4964 178.063 12.1026 178.063 11.6422C178.063 10.9822 177.847 10.4719 177.427 10.1169C177.001 9.75639 176.211 9.57336 175.055 9.57336H172.269V13.7665L172.275 13.7721Z" fill="#002F65"/>
<path d="M186.863 15.7521C186.863 12.3798 187.798 9.75635 189.671 7.88163C191.545 6.00692 194.149 5.06401 197.494 5.06401C200.838 5.06401 203.552 5.99028 205.404 7.83726C207.262 9.6787 208.19 12.2578 208.19 15.5802C208.19 17.9929 207.781 19.973 206.969 21.5205C206.162 23.0624 204.99 24.266 203.458 25.1257C201.927 25.9798 200.025 26.4069 197.748 26.4069C195.47 26.4069 193.508 26.0353 191.988 25.2976C190.468 24.5599 189.229 23.3896 188.278 21.7867C187.333 20.1782 186.863 18.1648 186.863 15.7577V15.7521ZM193.22 15.7743C193.22 17.8653 193.607 19.3629 194.381 20.267C195.155 21.1766 196.206 21.6314 197.538 21.6314C198.87 21.6314 199.959 21.1877 200.705 20.3002C201.457 19.4072 201.833 17.8043 201.833 15.4914C201.833 13.5501 201.441 12.1358 200.656 11.2373C199.871 10.3332 198.815 9.88392 197.477 9.88392C196.139 9.88392 195.161 10.3387 194.381 11.2484C193.602 12.158 193.22 13.6611 193.22 15.7687V15.7743Z" fill="#002F65"/>
<path d="M211.684 5.40794H223.591C225.57 5.40794 227.09 5.90158 228.152 6.88885C229.218 7.87613 229.755 9.09636 229.755 10.5551C229.755 11.7809 229.373 12.8291 228.616 13.6999C228.107 14.2768 227.367 14.7371 226.394 15.0755C227.875 15.4415 228.964 16.0572 229.655 16.9225C230.352 17.7877 230.705 18.8748 230.705 20.1949C230.705 21.2654 230.457 22.2305 229.959 23.0846C229.467 23.9388 228.793 24.6154 227.93 25.1091C227.4 25.4197 226.598 25.6471 225.526 25.7913C224.088 25.9743 223.138 26.0686 222.668 26.0686H211.695V5.40794H211.684ZM218.096 13.5058H220.86C221.85 13.5058 222.535 13.3394 222.922 12.9955C223.315 12.6461 223.508 12.1525 223.508 11.5035C223.508 10.9045 223.315 10.4331 222.922 10.0947C222.535 9.75639 221.866 9.58445 220.904 9.58445H218.096V13.5003V13.5058ZM218.096 21.6203H221.347C222.436 21.6203 223.204 21.4318 223.652 21.0435C224.105 20.6497 224.332 20.1283 224.332 19.4738C224.332 18.8582 224.105 18.3645 223.663 17.9929C223.215 17.6213 222.436 17.4383 221.324 17.4383H218.102V21.6203H218.096Z" fill="#002F65"/>
<path d="M233.21 15.7521C233.21 12.3798 234.144 9.75635 236.018 7.88163C237.892 6.00692 240.496 5.06401 243.84 5.06401C247.185 5.06401 249.899 5.99028 251.751 7.83726C253.608 9.6787 254.537 12.2578 254.537 15.5802C254.537 17.9929 254.128 19.973 253.315 21.5205C252.508 23.0624 251.336 24.266 249.805 25.1257C248.274 25.9798 246.372 26.4069 244.095 26.4069C241.817 26.4069 239.855 26.0353 238.334 25.2976C236.814 24.5599 235.576 23.3896 234.625 21.7867C233.68 20.1782 233.21 18.1648 233.21 15.7577V15.7521ZM239.567 15.7743C239.567 17.8653 239.954 19.3629 240.728 20.267C241.502 21.1766 242.552 21.6314 243.885 21.6314C245.217 21.6314 246.306 21.1877 247.052 20.3002C247.804 19.4072 248.18 17.8043 248.18 15.4914C248.18 13.5501 247.787 12.1358 247.002 11.2373C246.217 10.3332 245.161 9.88392 243.824 9.88392C242.486 9.88392 241.507 10.3387 240.723 11.2484C239.943 12.158 239.562 13.6611 239.562 15.7687L239.567 15.7743Z" fill="#002F65"/>
<path d="M267.843 26.0575H274.211V5.40794H267.843V26.0575Z" fill="#002F65"/>
<path d="M278.385 11.1041H283.703V13.539C284.493 12.5406 285.295 11.8251 286.108 11.4036C286.92 10.971 287.915 10.7547 289.093 10.7547C290.674 10.7547 291.906 11.2261 292.802 12.1746C293.703 13.1175 294.151 14.5706 294.151 16.5396V26.0519H288.402V17.8264C288.402 16.8891 288.23 16.2235 287.882 15.8408C287.534 15.447 287.047 15.2529 286.417 15.2529C285.726 15.2529 285.162 15.5191 284.737 16.0516C284.305 16.5785 284.09 17.5158 284.09 18.8692V26.0574H278.379V11.1041H278.385Z" fill="#002F65"/>
<path d="M308.695 20.2114L314.129 20.8382C313.83 21.9697 313.338 22.9514 312.653 23.7834C311.967 24.6153 311.094 25.2643 310.027 25.7246C308.966 26.1795 307.622 26.4069 305.986 26.4069C304.35 26.4069 303.084 26.2571 302.033 25.9687C300.978 25.6747 300.077 25.1977 299.314 24.5377C298.551 23.8777 297.959 23.1011 297.528 22.2026C297.097 21.3096 296.881 20.1282 296.881 18.6529C296.881 17.1775 297.141 15.8297 297.666 14.8036C298.048 14.0604 298.573 13.3892 299.231 12.7902C299.9 12.1912 300.585 11.7419 301.293 11.448C302.404 10.9876 303.83 10.7547 305.577 10.7547C308.004 10.7547 309.85 11.1928 311.127 12.0692C312.41 12.94 313.305 14.2157 313.819 15.8963L308.44 16.6118C308.28 15.9795 307.976 15.5025 307.528 15.1808C307.081 14.8535 306.483 14.6816 305.732 14.6816C304.786 14.6816 304.024 15.0255 303.438 15.7077C302.852 16.3843 302.564 17.416 302.564 18.7915C302.564 20.0228 302.852 20.9602 303.427 21.598C304.007 22.2414 304.753 22.5576 305.649 22.5576C306.389 22.5576 307.02 22.369 307.528 21.9808C308.042 21.598 308.429 21.0046 308.678 20.2003L308.695 20.2114Z" fill="#002F65"/>
<path d="M316.793 26.0575H322.896V20.3168H316.793V26.0575Z" fill="#002F65"/>
<path d="M10.4373 47.589H7.84463L7.47426 48.8148H5.14697L7.92203 41.4102H10.4096L13.1847 48.8148H10.8021L10.4317 47.589H10.4373ZM9.96186 45.9861L9.14371 43.3293L8.32557 45.9861H9.96186Z" fill="#002F65"/>
<path d="M17.3745 41.4102H23.0186V42.991H19.6686V44.2833H22.5266V45.7864H19.6686V48.8148H17.3745V41.4102Z" fill="#002F65"/>
<path d="M29.752 48.8147H27.8393V47.9494C27.5518 48.3044 27.2644 48.5595 26.9769 48.7093C26.6839 48.8646 26.3246 48.9422 25.9045 48.9422C25.3406 48.9422 24.9039 48.7759 24.5778 48.432C24.2571 48.0936 24.0913 47.5723 24.0913 46.8623V43.4401H26.1533V46.3964C26.1533 46.7347 26.2141 46.9732 26.3357 47.1119C26.4573 47.2506 26.6342 47.3171 26.8664 47.3171C27.1096 47.3171 27.3086 47.2228 27.4634 47.0398C27.6182 46.8512 27.6956 46.5073 27.6956 46.0248V43.4346H29.7464V48.8091L29.752 48.8147Z" fill="#002F65"/>
<path d="M33.4887 41.4102V43.4458H34.6164V44.9489H33.4887V46.8569C33.4887 47.0898 33.5053 47.2451 33.544 47.3172C33.6103 47.4281 33.732 47.4781 33.9033 47.4781C34.0581 47.4781 34.2682 47.4392 34.539 47.3505L34.6883 48.7704C34.1797 48.8869 33.7098 48.9423 33.2731 48.9423C32.759 48.9423 32.3776 48.8758 32.1344 48.7482C31.8967 48.6095 31.7198 48.4099 31.6037 48.1492C31.4876 47.8774 31.4323 47.4448 31.4323 46.8458V44.9489H30.686V43.4458H31.4323V42.464L33.4943 41.4102H33.4887Z" fill="#002F65"/>
<path d="M41.2172 48.8147H39.3045V47.9494C39.017 48.3044 38.7296 48.5595 38.4421 48.7093C38.1491 48.8646 37.7898 48.9422 37.3697 48.9422C36.8058 48.9422 36.3691 48.7759 36.0429 48.432C35.7223 48.0936 35.562 47.5723 35.562 46.8623V43.4401H37.624V46.3964C37.624 46.7347 37.6848 46.9732 37.8064 47.1119C37.928 47.2506 38.1049 47.3171 38.3371 47.3171C38.5803 47.3171 38.7793 47.2228 38.9341 47.0398C39.0889 46.8512 39.1663 46.5073 39.1663 46.0248V43.4346H41.2172V48.8091V48.8147Z" fill="#002F65"/>
<path d="M42.505 43.4401H44.4177V44.3165C44.6002 43.9393 44.7936 43.6786 44.9926 43.54C45.1916 43.3958 45.4349 43.3181 45.7168 43.3181C46.0208 43.3181 46.3525 43.4124 46.7063 43.5954L46.0706 45.0653C45.8329 44.9654 45.6394 44.9155 45.4957 44.9155C45.2248 44.9155 45.0148 45.0264 44.871 45.2483C44.6665 45.5644 44.5615 46.1524 44.5615 47.0065V48.8091H42.4995V43.4346L42.505 43.4401Z" fill="#002F65"/>
<path d="M53.1577 46.6405H49.0448C49.0725 46.9733 49.1609 47.2174 49.3102 47.3782C49.5092 47.6112 49.7635 47.7276 50.0841 47.7276C50.2831 47.7276 50.4766 47.6777 50.659 47.5779C50.7751 47.5113 50.8912 47.3949 51.0183 47.234L53.0471 47.4281C52.732 47.9661 52.3561 48.3599 51.9194 48.5929C51.4882 48.8259 50.8635 48.9423 50.0399 48.9423C49.3323 48.9423 48.774 48.8425 48.3704 48.6428C47.9613 48.4376 47.6241 48.1159 47.3588 47.6833C47.099 47.2451 46.9663 46.7348 46.9663 46.1469C46.9663 45.3094 47.2317 44.6327 47.7623 44.1113C48.2986 43.59 49.0393 43.3237 49.9846 43.3237C50.753 43.3237 51.3555 43.4402 51.7923 43.6732C52.2345 43.9061 52.5772 44.2444 52.8039 44.6882C53.0416 45.1263 53.1632 45.7032 53.1632 46.4076V46.6405H53.1577ZM51.0736 45.6588C51.0294 45.2595 50.9133 44.9766 50.7419 44.8046C50.5706 44.6272 50.3439 44.5384 50.062 44.5384C49.7414 44.5384 49.4815 44.6715 49.2881 44.9322C49.1554 45.0931 49.0725 45.3371 49.0448 45.6588H51.0736Z" fill="#002F65"/>
<path d="M62.6105 45.7863L64.6006 46.3854C64.4679 46.9455 64.2579 47.417 63.9649 47.7942C63.6774 48.1713 63.3236 48.4597 62.8925 48.6483C62.4613 48.8369 61.914 48.9367 61.2562 48.9367C60.4491 48.9367 59.7913 48.8203 59.2882 48.5873C58.7796 48.3544 58.3374 47.9439 57.9615 47.3504C57.5911 46.757 57.4087 46.0026 57.4087 45.0875C57.4087 43.8617 57.7348 42.9243 58.3871 42.2699C59.0395 41.6098 59.9571 41.277 61.1511 41.277C62.0799 41.277 62.8095 41.4656 63.3402 41.8428C63.8764 42.2199 64.2745 42.7968 64.5288 43.5788L62.511 44.0281C62.4447 43.8062 62.3673 43.6398 62.2899 43.5289C62.1572 43.3514 62.0025 43.2183 61.82 43.124C61.6376 43.0297 61.4275 42.9854 61.2009 42.9854C60.6868 42.9854 60.2888 43.1961 60.0124 43.6121C59.8023 43.9227 59.7028 44.4108 59.7028 45.0819C59.7028 45.8973 59.8244 46.463 60.0732 46.7681C60.3275 47.0787 60.6757 47.2284 61.1235 47.2284C61.5713 47.2284 61.8919 47.1064 62.113 46.8568C62.3452 46.6128 62.5055 46.2522 62.6105 45.7808V45.7863Z" fill="#002F65"/>
<path d="M65.3247 46.1469C65.3247 45.3316 65.5956 44.6549 66.1429 44.1224C66.6957 43.59 67.4419 43.3237 68.3872 43.3237C69.4541 43.3237 70.2612 43.6343 70.803 44.2611C71.2452 44.7658 71.4718 45.3759 71.4718 46.1081C71.4718 46.94 71.201 47.6223 70.6537 48.1547C70.1064 48.6816 69.3546 48.9423 68.3872 48.9423C67.5249 48.9423 66.8339 48.7205 66.3032 48.2823C65.6509 47.7387 65.3247 47.0232 65.3247 46.1469ZM67.3756 46.1469C67.3756 46.6294 67.4696 46.9789 67.6631 47.2118C67.8621 47.4392 68.1053 47.5446 68.3983 47.5446C68.6913 47.5446 68.929 47.4337 69.1224 47.2118C69.3104 46.99 69.4099 46.6294 69.4099 46.1247C69.4099 45.6588 69.3104 45.3094 69.1224 45.0875C68.929 44.8546 68.6913 44.7436 68.4093 44.7436C68.1108 44.7436 67.8621 44.8601 67.6631 45.0875C67.4696 45.3205 67.3756 45.6754 67.3756 46.1524V46.1469Z" fill="#002F65"/>
<path d="M72.4668 43.4401H74.3795V44.3165C74.6614 43.9615 74.9489 43.7119 75.2419 43.5511C75.5348 43.3958 75.8886 43.3181 76.3143 43.3181C76.8837 43.3181 77.3204 43.4901 77.641 43.8284C77.9616 44.1667 78.1219 44.6936 78.1219 45.3981V48.8091H76.06V45.8529C76.06 45.5256 75.9992 45.2871 75.8776 45.1485C75.756 45.0043 75.5791 44.9266 75.3579 44.9266C75.1037 44.9266 74.8991 45.0264 74.7499 45.215C74.5951 45.398 74.5177 45.7419 74.5177 46.23V48.8091H72.4668V43.4346V43.4401Z" fill="#002F65"/>
<path d="M79.3604 43.4401H81.273V44.3165C81.555 43.9615 81.8424 43.7119 82.1354 43.5511C82.4284 43.3958 82.7822 43.3181 83.2078 43.3181C83.7772 43.3181 84.2139 43.4901 84.5346 43.8284C84.8552 44.1667 85.0155 44.6936 85.0155 45.3981V48.8091H82.9536V45.8529C82.9536 45.5256 82.8927 45.2871 82.7711 45.1485C82.6495 45.0043 82.4726 44.9266 82.2515 44.9266C81.9972 44.9266 81.7927 45.0264 81.6434 45.215C81.4886 45.398 81.4112 45.7419 81.4112 46.23V48.8091H79.3604V43.4346V43.4401Z" fill="#002F65"/>
<path d="M92.1961 46.6405H88.0833C88.1109 46.9733 88.1993 47.2174 88.3486 47.3782C88.5476 47.6112 88.8019 47.7276 89.1225 47.7276C89.3215 47.7276 89.515 47.6777 89.6974 47.5779C89.8135 47.5113 89.9296 47.3949 90.0568 47.234L92.0855 47.4281C91.7704 47.9661 91.3945 48.3599 90.9578 48.5929C90.5266 48.8259 89.902 48.9423 89.0838 48.9423C88.3762 48.9423 87.8179 48.8425 87.4144 48.6428C87.0053 48.4376 86.6681 48.1159 86.4027 47.6833C86.1429 47.2451 86.0103 46.7348 86.0103 46.1469C86.0103 45.3094 86.2756 44.6327 86.8063 44.1113C87.3425 43.59 88.0833 43.3237 89.0285 43.3237C89.7969 43.3237 90.3995 43.4402 90.8362 43.6732C91.2784 43.9061 91.6212 44.2444 91.8478 44.6882C92.0855 45.1263 92.2071 45.7032 92.2071 46.4076V46.6405H92.1961ZM90.112 45.6588C90.0678 45.2595 89.9517 44.9766 89.7804 44.8046C89.609 44.6272 89.3823 44.5384 89.1004 44.5384C88.7798 44.5384 88.52 44.6715 88.3265 44.9322C88.1938 45.0931 88.1109 45.3371 88.0833 45.6588H90.112Z" fill="#002F65"/>
<path d="M97.1327 46.7126L99.0896 46.9456C98.9791 47.356 98.8022 47.7055 98.5589 48.0105C98.3102 48.3045 97.9951 48.5374 97.6136 48.7038C97.2267 48.8647 96.7457 48.9479 96.1598 48.9479C95.5738 48.9479 95.115 48.8924 94.7446 48.787C94.3687 48.6816 94.0426 48.5097 93.7662 48.2767C93.4953 48.0382 93.2797 47.7609 93.1194 47.4448C92.9646 47.1231 92.8872 46.696 92.8872 46.1635C92.8872 45.6311 92.9812 45.1485 93.1747 44.7769C93.3129 44.5107 93.5008 44.2666 93.7385 44.0614C93.9762 43.8451 94.2195 43.6842 94.4737 43.5789C94.8718 43.418 95.3859 43.3348 96.005 43.3348C96.8784 43.3348 97.5418 43.4957 97.9951 43.8063C98.4539 44.1169 98.7801 44.5772 98.9625 45.1818L97.0387 45.4369C96.9779 45.204 96.8674 45.032 96.7071 44.9156C96.5467 44.7991 96.3312 44.7436 96.0603 44.7436C95.7231 44.7436 95.4522 44.8656 95.2421 45.1152C95.0376 45.3537 94.9326 45.7254 94.9326 46.2245C94.9326 46.6627 95.0376 47.0011 95.2421 47.2285C95.4522 47.4559 95.712 47.5612 96.0382 47.5612C96.309 47.5612 96.5357 47.5002 96.7181 47.3671C96.9005 47.2285 97.0332 47.0121 97.1217 46.7182L97.1327 46.7126Z" fill="#002F65"/>
<path d="M102.517 41.4102V43.4458H103.645V44.9489H102.517V46.8569C102.517 47.0898 102.534 47.2451 102.572 47.3172C102.644 47.4281 102.76 47.4781 102.932 47.4781C103.086 47.4781 103.296 47.4392 103.567 47.3505L103.717 48.7704C103.208 48.8869 102.738 48.9423 102.301 48.9423C101.787 48.9423 101.406 48.8758 101.163 48.7482C100.925 48.6095 100.748 48.4099 100.632 48.1492C100.516 47.8774 100.461 47.4448 100.461 46.8458V44.9489H99.7144V43.4458H100.461V42.464L102.523 41.4102H102.517Z" fill="#002F65"/>
<path d="M110.56 46.6405H106.448C106.475 46.9733 106.564 47.2174 106.713 47.3782C106.912 47.6112 107.166 47.7276 107.487 47.7276C107.686 47.7276 107.879 47.6777 108.062 47.5779C108.178 47.5113 108.294 47.3949 108.421 47.234L110.45 47.4281C110.135 47.9661 109.759 48.3599 109.322 48.5929C108.891 48.8259 108.266 48.9423 107.443 48.9423C106.735 48.9423 106.177 48.8425 105.773 48.6428C105.364 48.4376 105.027 48.1159 104.762 47.6833C104.502 47.2451 104.369 46.7348 104.369 46.1469C104.369 45.3094 104.634 44.6327 105.165 44.1113C105.701 43.59 106.442 43.3237 107.387 43.3237C108.156 43.3237 108.758 43.4402 109.195 43.6732C109.637 43.9061 109.98 44.2444 110.207 44.6882C110.444 45.1263 110.566 45.7032 110.566 46.4076V46.6405H110.56ZM108.476 45.6588C108.432 45.2595 108.316 44.9766 108.145 44.8046C107.973 44.6272 107.747 44.5384 107.465 44.5384C107.144 44.5384 106.884 44.6715 106.691 44.9322C106.558 45.0931 106.475 45.3371 106.448 45.6588H108.476Z" fill="#002F65"/>
<path d="M117.139 41.4101V48.8147H115.215V48.016C114.944 48.3543 114.701 48.5817 114.48 48.6982C114.187 48.8591 113.861 48.9423 113.501 48.9423C112.772 48.9423 112.213 48.6649 111.832 48.1103C111.445 47.5501 111.257 46.8734 111.257 46.0747C111.257 45.1817 111.467 44.4995 111.893 44.0281C112.313 43.5622 112.854 43.3237 113.518 43.3237C113.833 43.3237 114.12 43.3791 114.38 43.4845C114.64 43.5954 114.872 43.7563 115.071 43.9671V41.4046H117.144L117.139 41.4101ZM115.077 46.1136C115.077 45.6976 114.988 45.387 114.811 45.1762C114.634 44.971 114.413 44.8656 114.142 44.8656C113.905 44.8656 113.706 44.9654 113.545 45.1651C113.385 45.3592 113.302 45.692 113.302 46.1579C113.302 46.5961 113.385 46.9178 113.545 47.1286C113.711 47.3282 113.921 47.4281 114.17 47.4281C114.419 47.4281 114.645 47.3282 114.817 47.1286C114.994 46.9178 115.082 46.5795 115.082 46.1136H115.077Z" fill="#002F65"/>
<path d="M121.859 41.4102H123.932V43.9727C124.131 43.7564 124.364 43.5955 124.623 43.4901C124.883 43.3848 125.171 43.3293 125.486 43.3293C126.138 43.3293 126.674 43.5678 127.1 44.0337C127.531 44.5051 127.747 45.1763 127.747 46.0582C127.747 46.6461 127.647 47.1619 127.448 47.6056C127.255 48.0549 126.989 48.3877 126.641 48.6095C126.304 48.8314 125.922 48.9423 125.502 48.9423C125.137 48.9423 124.811 48.8591 124.513 48.6983C124.286 48.5818 124.043 48.36 123.778 48.0161V48.8148H121.865V41.4102H121.859ZM123.91 46.1136C123.91 46.574 123.993 46.9123 124.165 47.1175C124.341 47.3228 124.563 47.4281 124.833 47.4281C125.077 47.4281 125.281 47.3283 125.447 47.1286C125.613 46.9179 125.701 46.5795 125.701 46.1025C125.701 45.6699 125.618 45.3593 125.458 45.1652C125.298 44.9655 125.093 44.8657 124.861 44.8657C124.585 44.8657 124.358 44.971 124.181 45.1763C124.004 45.3815 123.916 45.6976 123.916 46.1136H123.91Z" fill="#002F65"/>
<path d="M128.14 43.4402H130.307L131.412 47.0232L132.435 43.4402H134.453L132.335 49.1808C132.098 49.8353 131.854 50.279 131.6 50.512C131.246 50.8337 130.705 50.9945 129.975 50.9945C129.676 50.9945 129.218 50.9502 128.604 50.867L128.444 49.436C128.737 49.5302 129.057 49.5746 129.422 49.5746C129.665 49.5746 129.864 49.5192 130.008 49.4027C130.163 49.2918 130.29 49.0976 130.39 48.8148L128.145 43.4402H128.14Z" fill="#002F65"/>
<path d="M138.117 41.4102H145.049V43.235H142.722V48.8148H140.439V43.235H138.112V41.4102H138.117Z" fill="#002F65"/>
<path d="M151.28 46.6405H147.167C147.195 46.9733 147.283 47.2174 147.432 47.3782C147.631 47.6112 147.886 47.7276 148.206 47.7276C148.405 47.7276 148.599 47.6777 148.781 47.5779C148.897 47.5113 149.013 47.3949 149.14 47.234L151.169 47.4281C150.854 47.9661 150.478 48.3599 150.041 48.5929C149.61 48.8259 148.986 48.9423 148.162 48.9423C147.454 48.9423 146.896 48.8425 146.492 48.6428C146.083 48.4376 145.746 48.1159 145.481 47.6833C145.221 47.2451 145.088 46.7348 145.088 46.1469C145.088 45.3094 145.354 44.6327 145.884 44.1113C146.421 43.59 147.161 43.3237 148.107 43.3237C148.875 43.3237 149.478 43.4402 149.914 43.6732C150.357 43.9061 150.699 44.2444 150.926 44.6882C151.164 45.1263 151.285 45.7032 151.285 46.4076V46.6405H151.28ZM149.196 45.6588C149.151 45.2595 149.035 44.9766 148.864 44.8046C148.693 44.6272 148.466 44.5384 148.184 44.5384C147.863 44.5384 147.604 44.6715 147.41 44.9322C147.277 45.0931 147.195 45.3371 147.167 45.6588H149.196Z" fill="#002F65"/>
<path d="M156.227 46.7126L158.184 46.9456C158.074 47.356 157.902 47.7055 157.654 48.0105C157.405 48.3045 157.09 48.5374 156.708 48.7038C156.321 48.8647 155.84 48.9479 155.26 48.9479C154.679 48.9479 154.215 48.8924 153.845 48.787C153.469 48.6816 153.143 48.5097 152.866 48.2767C152.595 48.0382 152.38 47.7609 152.219 47.4448C152.065 47.1231 151.987 46.696 151.987 46.1635C151.987 45.6311 152.081 45.1485 152.275 44.7769C152.413 44.5107 152.601 44.2666 152.839 44.0614C153.076 43.8451 153.325 43.6842 153.574 43.5789C153.972 43.418 154.486 43.3348 155.105 43.3348C155.979 43.3348 156.642 43.4957 157.095 43.8063C157.554 44.1169 157.88 44.5772 158.063 45.1818L156.139 45.4369C156.078 45.204 155.967 45.032 155.807 44.9156C155.647 44.7991 155.431 44.7436 155.16 44.7436C154.823 44.7436 154.552 44.8656 154.342 45.1152C154.138 45.3537 154.033 45.7254 154.033 46.2245C154.033 46.6627 154.138 47.0011 154.342 47.2285C154.552 47.4559 154.812 47.5612 155.138 47.5612C155.409 47.5612 155.636 47.5002 155.818 47.3671C156.001 47.2285 156.133 47.0121 156.222 46.7182L156.227 46.7126Z" fill="#002F65"/>
<path d="M158.963 41.4102H161.014V44.1391C161.291 43.8451 161.567 43.6399 161.843 43.5123C162.12 43.3903 162.446 43.3293 162.822 43.3293C163.38 43.3293 163.817 43.5012 164.138 43.8396C164.458 44.1779 164.619 44.7048 164.619 45.4092V48.8203H162.557V45.864C162.557 45.5368 162.496 45.2983 162.374 45.1596C162.253 45.0154 162.076 44.9378 161.855 44.9378C161.6 44.9378 161.396 45.0376 161.246 45.2262C161.092 45.4092 161.014 45.7531 161.014 46.2412V48.8203H158.963V41.4157V41.4102Z" fill="#002F65"/>
<path d="M165.862 43.4401H167.775V44.3165C168.057 43.9615 168.344 43.7119 168.637 43.5511C168.93 43.3958 169.284 43.3181 169.71 43.3181C170.279 43.3181 170.716 43.4901 171.037 43.8284C171.357 44.1667 171.517 44.6936 171.517 45.3981V48.8091H169.456V45.8529C169.456 45.5256 169.395 45.2871 169.273 45.1485C169.151 45.0043 168.975 44.9266 168.753 44.9266C168.499 44.9266 168.295 45.0264 168.145 45.215C167.991 45.398 167.913 45.7419 167.913 46.23V48.8091H165.862V43.4346V43.4401Z" fill="#002F65"/>
<path d="M172.501 46.1469C172.501 45.3316 172.772 44.6549 173.32 44.1224C173.872 43.59 174.619 43.3237 175.564 43.3237C176.631 43.3237 177.438 43.6343 177.985 44.2611C178.427 44.7658 178.654 45.3759 178.654 46.1081C178.654 46.94 178.383 47.6223 177.836 48.1547C177.289 48.6816 176.537 48.9423 175.57 48.9423C174.707 48.9423 174.016 48.7205 173.485 48.2823C172.833 47.7387 172.507 47.0232 172.507 46.1469H172.501ZM174.552 46.1469C174.552 46.6294 174.646 46.9789 174.84 47.2118C175.039 47.4392 175.282 47.5446 175.575 47.5446C175.868 47.5446 176.106 47.4337 176.299 47.2118C176.487 46.99 176.587 46.6294 176.587 46.1247C176.587 45.6588 176.487 45.3094 176.299 45.0875C176.106 44.8546 175.868 44.7436 175.586 44.7436C175.288 44.7436 175.033 44.8601 174.84 45.0875C174.646 45.3205 174.552 45.6754 174.552 46.1524V46.1469Z" fill="#002F65"/>
<path d="M179.721 48.8148H181.772V41.4102H179.721V48.8148Z" fill="#002F65"/>
<path d="M182.844 46.1469C182.844 45.3316 183.115 44.6549 183.662 44.1224C184.215 43.59 184.961 43.3237 185.907 43.3237C186.974 43.3237 187.781 43.6343 188.322 44.2611C188.765 44.7658 188.991 45.3759 188.991 46.1081C188.991 46.94 188.72 47.6223 188.173 48.1547C187.626 48.6816 186.874 48.9423 185.907 48.9423C185.044 48.9423 184.353 48.7205 183.823 48.2823C183.17 47.7387 182.844 47.0232 182.844 46.1469ZM184.895 46.1469C184.895 46.6294 184.989 46.9789 185.183 47.2118C185.382 47.4392 185.625 47.5446 185.918 47.5446C186.211 47.5446 186.448 47.4337 186.642 47.2118C186.83 46.99 186.929 46.6294 186.929 46.1247C186.929 45.6588 186.83 45.3094 186.642 45.0875C186.448 44.8546 186.211 44.7436 185.929 44.7436C185.63 44.7436 185.382 44.8601 185.183 45.0875C184.989 45.3205 184.895 45.6754 184.895 46.1524V46.1469Z" fill="#002F65"/>
<path d="M193.707 43.4402H195.631V48.7537C195.631 49.0921 195.553 49.4138 195.41 49.7133C195.271 50.0183 195.083 50.2679 194.846 50.451C194.608 50.6396 194.304 50.7782 193.934 50.867C193.569 50.9502 193.154 50.9945 192.69 50.9945C191.612 50.9945 190.877 50.8337 190.479 50.512C190.081 50.1903 189.882 49.7521 189.882 49.2086C189.882 49.1365 189.882 49.0477 189.893 48.9423L191.872 49.1642C191.921 49.3472 191.999 49.4748 192.104 49.5469C192.259 49.6523 192.446 49.7077 192.679 49.7077C192.972 49.7077 193.187 49.6245 193.337 49.4637C193.48 49.3084 193.552 49.0366 193.552 48.6428V47.8219C193.353 48.0604 193.154 48.2379 192.955 48.3433C192.64 48.5152 192.297 48.5984 191.932 48.5984C191.219 48.5984 190.644 48.2878 190.208 47.6611C189.893 47.2174 189.738 46.6294 189.738 45.8918C189.738 45.0598 189.937 44.4219 190.335 43.9838C190.738 43.5456 191.269 43.3237 191.927 43.3237C192.341 43.3237 192.679 43.4014 192.95 43.5456C193.226 43.6843 193.48 43.9172 193.712 44.2389V43.4402H193.707ZM191.783 46.0526C191.783 46.4409 191.866 46.7293 192.026 46.9179C192.187 47.1009 192.402 47.1952 192.673 47.1952C192.944 47.1952 193.149 47.1009 193.32 46.9068C193.497 46.7071 193.585 46.4076 193.585 46.0193C193.585 45.6311 193.491 45.3371 193.309 45.1263C193.132 44.9211 192.911 44.8157 192.64 44.8157C192.369 44.8157 192.17 44.9156 192.021 45.1042C191.866 45.2872 191.789 45.6089 191.789 46.0526H191.783Z" fill="#002F65"/>
<path d="M196.477 43.4402H198.644L199.749 47.0232L200.772 43.4402H202.79L200.672 49.1808C200.435 49.8353 200.191 50.279 199.937 50.512C199.583 50.8337 199.042 50.9945 198.312 50.9945C198.013 50.9945 197.555 50.9502 196.941 50.867L196.781 49.436C197.074 49.5302 197.394 49.5746 197.759 49.5746C198.002 49.5746 198.201 49.5192 198.345 49.4027C198.5 49.2918 198.627 49.0976 198.726 48.8148L196.482 43.4402H196.477Z" fill="#002F65"/>
<path d="M202.519 46.7682H204.719V48.4654C204.719 49.0866 204.586 49.5802 204.326 49.9352C204.066 50.2957 203.624 50.6174 202.999 50.8947L202.519 49.9962C202.911 49.8187 203.176 49.6357 203.326 49.4527C203.469 49.2752 203.552 49.0644 203.569 48.8148H202.519V46.7682Z" fill="#002F65"/>
<path d="M214.094 47.589H211.501L211.131 48.8148H208.804L211.579 41.4102H214.066L216.841 48.8148H214.459L214.088 47.589H214.094ZM213.619 45.9861L212.8 43.3293L211.982 45.9861H213.619Z" fill="#002F65"/>
<path d="M220.263 41.4102H222.43L223.215 45.5479L224.343 41.4102H226.51L227.649 45.5479L228.434 41.4102H230.589L228.964 48.8148H226.731L225.432 44.1446L224.144 48.8148H221.911L220.274 41.4102H220.263Z" fill="#002F65"/>
<path d="M230.7 46.1469C230.7 45.3316 230.971 44.6549 231.518 44.1224C232.071 43.59 232.817 43.3237 233.763 43.3237C234.83 43.3237 235.637 43.6343 236.184 44.2611C236.626 44.7658 236.853 45.3759 236.853 46.1081C236.853 46.94 236.582 47.6223 236.035 48.1547C235.487 48.6816 234.736 48.9423 233.768 48.9423C232.906 48.9423 232.215 48.7205 231.684 48.2823C231.032 47.7387 230.706 47.0232 230.706 46.1469H230.7ZM232.751 46.1469C232.751 46.6294 232.845 46.9789 233.039 47.2118C233.238 47.4392 233.481 47.5446 233.774 47.5446C234.067 47.5446 234.304 47.4337 234.498 47.2118C234.686 46.99 234.785 46.6294 234.785 46.1247C234.785 45.6588 234.686 45.3094 234.498 45.0875C234.304 44.8546 234.067 44.7436 233.785 44.7436C233.486 44.7436 233.238 44.8601 233.039 45.0875C232.845 45.3205 232.751 45.6754 232.751 46.1524V46.1469Z" fill="#002F65"/>
<path d="M237.876 43.4401H239.788V44.3165C239.971 43.9393 240.164 43.6786 240.363 43.54C240.562 43.3958 240.805 43.3181 241.087 43.3181C241.391 43.3181 241.723 43.4124 242.077 43.5954L241.441 45.0653C241.204 44.9654 241.01 44.9155 240.866 44.9155C240.595 44.9155 240.385 45.0264 240.242 45.2483C240.037 45.5644 239.932 46.1524 239.932 47.0065V48.8091H237.87V43.4346L237.876 43.4401Z" fill="#002F65"/>
<path d="M242.851 48.8148H244.902V41.4102H242.851V48.8148Z" fill="#002F65"/>
<path d="M251.873 41.4101V48.8147H249.949V48.016C249.678 48.3543 249.435 48.5817 249.214 48.6982C248.921 48.8591 248.594 48.9423 248.235 48.9423C247.505 48.9423 246.947 48.6649 246.566 48.1103C246.179 47.5501 245.991 46.8734 245.991 46.0747C245.991 45.1817 246.201 44.4995 246.626 44.0281C247.047 43.5622 247.588 43.3237 248.252 43.3237C248.567 43.3237 248.854 43.3791 249.114 43.4845C249.374 43.5954 249.606 43.7563 249.805 43.9671V41.4046H251.878L251.873 41.4101ZM249.811 46.1136C249.811 45.6976 249.722 45.387 249.545 45.1762C249.368 44.971 249.147 44.8656 248.876 44.8656C248.639 44.8656 248.44 44.9654 248.279 45.1651C248.119 45.3592 248.036 45.692 248.036 46.1579C248.036 46.5961 248.119 46.9178 248.279 47.1286C248.445 47.3282 248.655 47.4281 248.904 47.4281C249.153 47.4281 249.379 47.3282 249.551 47.1286C249.728 46.9178 249.816 46.5795 249.816 46.1136H249.811Z" fill="#002F65"/>
<path d="M256.312 46.3632L258.49 46.2245C258.534 46.5795 258.633 46.8513 258.777 47.0343C259.009 47.3338 259.341 47.4836 259.778 47.4836C260.104 47.4836 260.358 47.4059 260.524 47.2506C260.701 47.0953 260.789 46.9234 260.789 46.7181C260.789 46.5296 260.706 46.3521 260.546 46.1968C260.375 46.0526 259.982 45.9084 259.368 45.7697C258.368 45.5478 257.655 45.2483 257.229 44.8712C256.798 44.4995 256.582 44.0225 256.582 43.4402C256.582 43.063 256.687 42.708 256.903 42.3641C257.124 42.0258 257.456 41.7596 257.904 41.5655C258.346 41.3769 258.954 41.277 259.722 41.277C260.668 41.277 261.386 41.4545 261.878 41.8095C262.376 42.1534 262.674 42.7191 262.763 43.4845L260.607 43.6121C260.551 43.2738 260.435 43.0297 260.247 42.8855C260.065 42.7302 259.811 42.6526 259.49 42.6526C259.219 42.6526 259.02 42.708 258.882 42.8245C258.749 42.9354 258.689 43.0686 258.689 43.2294C258.689 43.3514 258.749 43.4623 258.86 43.5511C258.965 43.6509 259.219 43.7452 259.617 43.8284C260.612 44.0447 261.325 44.2666 261.757 44.4885C262.193 44.7048 262.508 44.9821 262.702 45.3093C262.901 45.631 263 45.9971 263 46.3964C263 46.879 262.868 47.3172 262.608 47.711C262.348 48.1103 261.978 48.4154 261.502 48.6261C261.032 48.8314 260.441 48.9367 259.728 48.9367C258.467 48.9367 257.6 48.6927 257.113 48.2101C256.632 47.7276 256.356 47.1119 256.295 46.3632H256.312Z" fill="#002F65"/>
<path d="M269.977 46.6405H265.864C265.891 46.9733 265.98 47.2174 266.129 47.3782C266.328 47.6112 266.582 47.7276 266.903 47.7276C267.102 47.7276 267.295 47.6777 267.478 47.5779C267.594 47.5113 267.71 47.3949 267.837 47.234L269.866 47.4281C269.551 47.9661 269.175 48.3599 268.738 48.5929C268.307 48.8259 267.682 48.9423 266.859 48.9423C266.151 48.9423 265.593 48.8425 265.189 48.6428C264.78 48.4376 264.443 48.1159 264.178 47.6833C263.918 47.2451 263.785 46.7348 263.785 46.1469C263.785 45.3094 264.051 44.6327 264.581 44.1113C265.117 43.59 265.858 43.3237 266.803 43.3237C267.572 43.3237 268.174 43.4402 268.611 43.6732C269.053 43.9061 269.396 44.2444 269.623 44.6882C269.86 45.1263 269.982 45.7032 269.982 46.4076V46.6405H269.977ZM267.892 45.6588C267.848 45.2595 267.732 44.9766 267.561 44.8046C267.389 44.6272 267.163 44.5384 266.881 44.5384C266.56 44.5384 266.3 44.6715 266.107 44.9322C265.974 45.0931 265.891 45.3371 265.864 45.6588H267.892Z" fill="#002F65"/>
<path d="M273.404 41.4102V43.4458H274.531V44.9489H273.404V46.8569C273.404 47.0898 273.42 47.2451 273.459 47.3172C273.525 47.4281 273.647 47.4781 273.818 47.4781C273.973 47.4781 274.183 47.4392 274.454 47.3505L274.603 48.7704C274.095 48.8869 273.625 48.9423 273.188 48.9423C272.674 48.9423 272.293 48.8758 272.049 48.7482C271.812 48.6095 271.635 48.4099 271.519 48.1492C271.403 47.8774 271.347 47.4448 271.347 46.8458V44.9489H270.601V43.4458H271.347V42.464L273.409 41.4102H273.404Z" fill="#002F65"/>
<path d="M279.021 41.4102H281.071V42.8079H279.021V41.4102ZM279.021 43.4402H281.071V48.8148H279.021V43.4402Z" fill="#002F65"/>
<path d="M282.398 43.4401H284.311V44.3165C284.593 43.9615 284.881 43.7119 285.173 43.5511C285.466 43.3958 285.82 43.3181 286.246 43.3181C286.815 43.3181 287.252 43.4901 287.567 43.8284C287.888 44.1667 288.054 44.6936 288.054 45.3981V48.8091H285.992V45.8529C285.992 45.5256 285.931 45.2871 285.809 45.1485C285.688 45.0043 285.511 44.9266 285.29 44.9266C285.035 44.9266 284.831 45.0264 284.681 45.215C284.527 45.398 284.449 45.7419 284.449 46.23V48.8091H282.398V43.4346V43.4401Z" fill="#002F65"/>
<path d="M292.84 41.4102H295.848L297.008 45.914L298.158 41.4102H301.154V48.8148H299.291V43.1629L297.838 48.8148H296.157L294.72 43.1629V48.8148H292.84V41.4102Z" fill="#002F65"/>
<path d="M302.216 46.1469C302.216 45.3316 302.487 44.6549 303.034 44.1224C303.587 43.59 304.333 43.3237 305.278 43.3237C306.345 43.3237 307.152 43.6343 307.694 44.2611C308.136 44.7658 308.363 45.3759 308.363 46.1081C308.363 46.94 308.092 47.6223 307.545 48.1547C306.998 48.6816 306.246 48.9423 305.278 48.9423C304.416 48.9423 303.725 48.7205 303.194 48.2823C302.542 47.7387 302.216 47.0232 302.216 46.1469ZM304.267 46.1469C304.267 46.6294 304.361 46.9789 304.554 47.2118C304.753 47.4392 304.996 47.5446 305.289 47.5446C305.582 47.5446 305.82 47.4337 306.014 47.2118C306.202 46.99 306.301 46.6294 306.301 46.1247C306.301 45.6588 306.202 45.3094 306.014 45.0875C305.82 44.8546 305.582 44.7436 305.3 44.7436C305.002 44.7436 304.753 44.8601 304.554 45.0875C304.361 45.3205 304.267 45.6754 304.267 46.1524V46.1469Z" fill="#002F65"/>
<path d="M311.84 41.4102V43.4458H312.968V44.9489H311.84V46.8569C311.84 47.0898 311.856 47.2451 311.895 47.3172C311.967 47.4281 312.083 47.4781 312.254 47.4781C312.409 47.4781 312.619 47.4392 312.89 47.3505L313.039 48.7704C312.531 48.8869 312.061 48.9423 311.624 48.9423C311.11 48.9423 310.729 48.8758 310.485 48.7482C310.248 48.6095 310.071 48.4099 309.955 48.1492C309.839 47.8774 309.783 47.4448 309.783 46.8458V44.9489H309.037V43.4458H309.783V42.464L311.845 41.4102H311.84Z" fill="#002F65"/>
<path d="M314.007 41.4102H316.058V42.8079H314.007V41.4102ZM314.007 43.4402H316.058V48.8148H314.007V43.4402Z" fill="#002F65"/>
<path d="M317.13 46.1469C317.13 45.3316 317.401 44.6549 317.949 44.1224C318.501 43.59 319.248 43.3237 320.193 43.3237C321.26 43.3237 322.067 43.6343 322.609 44.2611C323.051 44.7658 323.278 45.3759 323.278 46.1081C323.278 46.94 323.001 47.6223 322.459 48.1547C321.912 48.6816 321.16 48.9423 320.193 48.9423C319.331 48.9423 318.64 48.7205 318.109 48.2823C317.457 47.7387 317.13 47.0232 317.13 46.1469ZM319.181 46.1469C319.181 46.6294 319.275 46.9789 319.469 47.2118C319.668 47.4392 319.911 47.5446 320.204 47.5446C320.497 47.5446 320.735 47.4337 320.928 47.2118C321.116 46.99 321.216 46.6294 321.216 46.1247C321.216 45.6588 321.116 45.3094 320.928 45.0875C320.735 44.8546 320.497 44.7436 320.215 44.7436C319.916 44.7436 319.668 44.8601 319.469 45.0875C319.275 45.3205 319.181 45.6754 319.181 46.1524V46.1469Z" fill="#002F65"/>
<path d="M324.278 43.4401H326.191V44.3165C326.473 43.9615 326.76 43.7119 327.053 43.5511C327.346 43.3958 327.7 43.3181 328.126 43.3181C328.695 43.3181 329.132 43.4901 329.453 43.8284C329.773 44.1667 329.933 44.6936 329.933 45.3981V48.8091H327.872V45.8529C327.872 45.5256 327.811 45.2871 327.689 45.1485C327.568 45.0043 327.391 44.9266 327.169 44.9266C326.915 44.9266 326.711 45.0264 326.561 45.215C326.407 45.398 326.329 45.7419 326.329 46.23V48.8091H324.278V43.4346V43.4401Z" fill="#002F65"/>
<path d="M331.166 48.8147H333.366V46.7458H331.166V48.8147Z" fill="#002F65"/>
</g>
<defs>
<clipPath id="clip0_272_1442">
<rect width="333.366" height="51" fill="white"/>
</clipPath>
</defs>
</svg>
