<svg width="500" height="73" viewBox="0 0 500 73" fill="none" xmlns="http://www.w3.org/2000/svg">
<path d="M313.983 33.2304H326.439V39.3128H313.983V33.2304Z" fill="#00913A"/>
<path d="M326.439 39.5184H313.983C313.846 39.5184 313.743 39.4327 313.743 39.3299V33.2475C313.743 33.1447 313.846 33.0591 313.983 33.0591H326.439C326.576 33.0591 326.679 33.1447 326.679 33.2475V39.3299C326.679 39.4327 326.576 39.5184 326.439 39.5184ZM314.223 39.1414H326.216V33.4189H314.223V39.1414Z" fill="#00913A"/>
<path d="M123.1 11.6252H114.653C114.417 11.6252 114.225 11.817 114.225 12.0535V60.5067C114.225 60.7433 114.417 60.935 114.653 60.935H123.1C123.337 60.935 123.529 60.7433 123.529 60.5067V12.0535C123.529 11.817 123.337 11.6252 123.1 11.6252Z" fill="#3E3A39"/>
<path d="M173.524 11.6252H165.231C164.991 11.6252 164.803 11.8137 164.803 12.0535V44.8297L140.165 11.7965C140.079 11.6937 139.959 11.6252 139.822 11.6252H132.352C132.112 11.6252 131.924 11.8137 131.924 12.0535V60.3696C131.924 60.6095 132.112 60.798 132.352 60.798H140.645C140.885 60.798 141.073 60.6095 141.073 60.3696V27.7134L165.711 60.6266C165.797 60.7294 165.916 60.798 166.054 60.798H173.524C173.764 60.798 173.952 60.6095 173.952 60.3696V12.0535C173.952 11.8137 173.764 11.6252 173.524 11.6252Z" fill="#3E3A39"/>
<path d="M201.845 32.2366L201.006 32.0139C192.062 29.5981 190.863 28.6043 190.897 25.8801C191 21.7853 193.758 19.7807 199.344 19.7635C204.073 19.7635 208.304 21.1856 211.628 23.8584C211.714 23.9269 211.817 23.9612 211.937 23.9441C212.057 23.9441 212.159 23.8755 212.228 23.7899L216.648 18.29C216.785 18.1187 216.768 17.8617 216.597 17.7075C212.262 13.8354 206.009 11.608 199.429 11.608C190.846 11.608 181.662 15.4116 181.645 26.0515C181.662 34.0528 186.819 36.8284 198.35 40.0152L199.481 40.3236C205.46 41.9512 208.459 42.7565 208.442 46.423C208.442 48.342 207.551 49.9697 205.889 51.1176C204.278 52.2313 201.982 52.8309 199.395 52.8309H199.327C195.112 52.8309 188.995 51.0319 185.688 46.9884C185.603 46.8856 185.483 46.8342 185.363 46.8342C185.226 46.8342 185.106 46.8856 185.037 46.9884L180.531 52.2998C180.394 52.454 180.394 52.6767 180.531 52.8481C184.403 57.6797 191.959 60.9179 199.344 60.9179C205.203 60.9179 210.669 58.9133 213.993 55.5551C216.494 53.0365 217.745 49.8669 217.694 46.166C217.591 36.4172 208.853 34.087 201.845 32.2195V32.2366Z" fill="#3E3A39"/>
<path d="M311.619 53.0537H287.187V12.0535C287.187 11.8137 286.998 11.6252 286.758 11.6252H278.312C278.072 11.6252 277.883 11.8137 277.883 12.0535V60.5067C277.883 60.7466 278.072 60.935 278.312 60.935H311.619C311.859 60.935 312.047 60.7466 312.047 60.5067V53.482C312.047 53.2421 311.859 53.0537 311.619 53.0537Z" fill="#3E3A39"/>
<path d="M246.238 11.6252C232.651 11.6252 221.583 22.6933 221.583 36.2801C221.583 49.8669 232.651 60.935 246.238 60.935C259.825 60.935 270.893 49.8669 270.893 36.2801C270.893 22.6933 259.825 11.6252 246.238 11.6252ZM262.994 36.2801C262.994 45.515 255.473 53.0365 246.238 53.0365C237.003 53.0365 229.498 45.515 229.498 36.2801C229.498 27.0452 237.003 19.5408 246.238 19.5408C255.473 19.5408 262.994 27.0452 262.994 36.2801Z" fill="#3E3A39"/>
<path d="M376.863 11.6252H368.621C368.382 11.6252 368.193 11.8137 368.193 12.0535V31.2429H344.361V12.0535C344.361 11.8137 344.172 11.6252 343.932 11.6252H335.691C335.451 11.6252 335.263 11.8137 335.263 12.0535V60.5067C335.263 60.7466 335.451 60.935 335.691 60.935H343.932C344.172 60.935 344.361 60.7466 344.361 60.5067V39.1414H368.193V60.5067C368.193 60.7466 368.382 60.935 368.621 60.935H376.863C377.103 60.935 377.291 60.7466 377.291 60.5067V12.0535C377.291 11.8137 377.103 11.6252 376.863 11.6252Z" fill="#3E3A39"/>
<path d="M394.15 11.6252H385.703C385.467 11.6252 385.275 11.817 385.275 12.0535V60.5067C385.275 60.7433 385.467 60.935 385.703 60.935H394.15C394.387 60.935 394.578 60.7433 394.578 60.5067V12.0535C394.578 11.817 394.387 11.6252 394.15 11.6252Z" fill="#3E3A39"/>
<path d="M499.572 11.6252H491.331C491.091 11.6252 490.902 11.8137 490.902 12.0535V31.2429H467.07V12.0535C467.07 11.8137 466.881 11.6252 466.641 11.6252H458.4C458.16 11.6252 457.972 11.8137 457.972 12.0535V60.5067C457.972 60.7466 458.16 60.935 458.4 60.935H466.641C466.881 60.935 467.07 60.7466 467.07 60.5067V39.1414H490.902V60.5067C490.902 60.7466 491.091 60.935 491.331 60.935H499.572C499.812 60.935 500 60.7466 500 60.5067V12.0535C500 11.8137 499.812 11.6252 499.572 11.6252Z" fill="#3E3A39"/>
<path d="M450.485 35.8518H426.258C426.018 35.8518 425.83 36.0402 425.83 36.2801V43.3219C425.83 43.5618 426.018 43.7503 426.258 43.7503H441.233C438.406 49.4043 432.597 53.0194 426.258 53.0194C417.023 53.0194 409.519 45.4979 409.519 36.263C409.519 27.0281 417.023 19.5237 426.258 19.5237C429.188 19.5237 432.066 20.3118 434.619 21.7853C434.722 21.8367 434.842 21.8538 434.945 21.8367C435.048 21.8024 435.15 21.7339 435.202 21.6311L438.731 15.5316C438.851 15.326 438.783 15.069 438.577 14.9491C434.825 12.7731 430.559 11.6252 426.258 11.6252C419.679 11.6252 413.477 14.1952 408.833 18.8383C407.72 19.952 406.709 21.1856 405.818 22.4877C404.927 23.807 404.156 25.2119 403.539 26.6683C402.905 28.1589 402.426 29.718 402.1 31.2943C401.774 32.922 401.603 34.5839 401.603 36.263C401.603 49.8497 412.671 60.9179 426.258 60.9179C439.845 60.9179 450.913 49.8497 450.913 36.263C450.913 36.0231 450.725 35.8346 450.485 35.8346V35.8518Z" fill="#3E3A39"/>
<path d="M41.0312 31.2257V2.47594C41.0312 1.0196 39.7805 -0.111203 38.3413 0.00873015C18.4665 1.7392 2.60104 14.5721 0.0310368 30.8831C-0.20883 32.3565 0.973372 33.6929 2.48111 33.6929H38.5811C39.9347 33.6929 41.0483 32.5964 41.0483 31.2257H41.0312Z" fill="#006934"/>
<path d="M47.0792 33.6758H83.1792C84.6698 33.6758 85.852 32.3565 85.6293 30.8659C83.0593 14.5721 67.1938 1.7392 47.3191 0.00873014C45.8799 -0.111203 44.6292 1.0196 44.6292 2.47594V31.2086C44.6292 32.5621 45.7257 33.6758 47.0964 33.6758H47.0792Z" fill="#00A29A"/>
<path d="M38.581 37.3766H2.60093C1.00753 37.3766 -0.174675 38.8672 0.185126 40.4092C3.2006 53.3106 18.8605 63.385 38.3754 64.7386C39.8146 64.8414 41.0311 63.7106 41.0311 62.2714V39.8266C41.0311 38.4731 39.9345 37.3594 38.5639 37.3594L38.581 37.3766Z" fill="#22AC38"/>
<path d="M52.836 37.171H47.4048C46.9316 37.171 46.5481 37.5545 46.5481 38.0276V43.4589C46.5481 43.932 46.9316 44.3156 47.4048 44.3156H52.836C53.3092 44.3156 53.6927 43.932 53.6927 43.4589V38.0276C53.6927 37.5545 53.3092 37.171 52.836 37.171Z" fill="#727171"/>
<path d="M62.8419 37.171H57.4106C56.9375 37.171 56.554 37.5545 56.554 38.0276V43.4589C56.554 43.932 56.9375 44.3156 57.4106 44.3156H62.8419C63.315 44.3156 63.6986 43.932 63.6986 43.4589V38.0276C63.6986 37.5545 63.315 37.171 62.8419 37.171Z" fill="#727171"/>
<path d="M72.8651 37.171H67.4338C66.9607 37.171 66.5771 37.5545 66.5771 38.0276V43.4589C66.5771 43.932 66.9607 44.3156 67.4338 44.3156H72.8651C73.3382 44.3156 73.7218 43.932 73.7218 43.4589V38.0276C73.7218 37.5545 73.3382 37.171 72.8651 37.171Z" fill="#727171"/>
<path d="M82.871 37.171H77.4397C76.9666 37.171 76.583 37.5545 76.583 38.0276V43.4589C76.583 43.932 76.9666 44.3156 77.4397 44.3156H82.871C83.3441 44.3156 83.7276 43.932 83.7276 43.4589V38.0276C83.7276 37.5545 83.3441 37.171 82.871 37.171Z" fill="#727171"/>
<path d="M62.8419 46.8685H57.4106C56.9375 46.8685 56.554 47.2521 56.554 47.7252V53.1565C56.554 53.6296 56.9375 54.0131 57.4106 54.0131H62.8419C63.315 54.0131 63.6986 53.6296 63.6986 53.1565V47.7252C63.6986 47.2521 63.315 46.8685 62.8419 46.8685Z" fill="#9FA0A0"/>
<path d="M72.8651 46.8685H67.4338C66.9607 46.8685 66.5771 47.2521 66.5771 47.7252V53.1565C66.5771 53.6296 66.9607 54.0131 67.4338 54.0131H72.8651C73.3382 54.0131 73.7218 53.6296 73.7218 53.1565V47.7252C73.7218 47.2521 73.3382 46.8685 72.8651 46.8685Z" fill="#9FA0A0"/>
<path d="M82.871 46.8685H77.4397C76.9666 46.8685 76.583 47.2521 76.583 47.7252V53.1565C76.583 53.6296 76.9666 54.0131 77.4397 54.0131H82.871C83.3441 54.0131 83.7276 53.6296 83.7276 53.1565V47.7252C83.7276 47.2521 83.3441 46.8685 82.871 46.8685Z" fill="#9FA0A0"/>
<path d="M72.8651 56.1721H67.4338C66.9607 56.1721 66.5771 56.5556 66.5771 57.0287V62.46C66.5771 62.9331 66.9607 63.3167 67.4338 63.3167H72.8651C73.3382 63.3167 73.7218 62.9331 73.7218 62.46V57.0287C73.7218 56.5556 73.3382 56.1721 72.8651 56.1721Z" fill="#B5B5B6"/>
<path d="M82.871 56.1721H77.4397C76.9666 56.1721 76.583 56.5556 76.583 57.0287V62.46C76.583 62.9331 76.9666 63.3167 77.4397 63.3167H82.871C83.3441 63.3167 83.7276 62.9331 83.7276 62.46V57.0287C83.7276 56.5556 83.3441 56.1721 82.871 56.1721Z" fill="#B5B5B6"/>
<path d="M72.8651 65.4067H67.4338C66.9607 65.4067 66.5771 65.7903 66.5771 66.2634V71.6947C66.5771 72.1678 66.9607 72.5514 67.4338 72.5514H72.8651C73.3382 72.5514 73.7218 72.1678 73.7218 71.6947V66.2634C73.7218 65.7903 73.3382 65.4067 72.8651 65.4067Z" fill="#C9CACA"/>
<path d="M82.871 65.4067H77.4397C76.9666 65.4067 76.583 65.7903 76.583 66.2634V71.6947C76.583 72.1678 76.9666 72.5514 77.4397 72.5514H82.871C83.3441 72.5514 83.7276 72.1678 83.7276 71.6947V66.2634C83.7276 65.7903 83.3441 65.4067 82.871 65.4067Z" fill="#C9CACA"/>
</svg>
